# xmcd
#
# Track frame offsets: 
#        150
#        14410
#        29625
#        43195
#        56575
#        72240
#        87367
#        102827
#        116935
#        132600
#
# Disc length: 1975 seconds
#
# Revision: 1
# Processed by: cddbd v1.5PL3 Copyright (c) Steve Scherf et al.
# Submitted via: ExactAudioCopy v0.95a3
#
DISCID=9407b50a
DTITLE=Tammy Wynette - Higher Ground
DYEAR=1987
DGENRE=
TTITLE0=Your Love
TTITLE1=Tempted
TTITLE2=Some Things Will Never Change
TTITLE3=Beneath A Painted Sky
TTITLE4=I Wasn't Meant To Live My Life Alone
TTITLE5=Higher Ground
TTITLE6=Talkin' To Myself Again
TTITLE7=A Slow Burning Fire
TTITLE8=There's No Heart So Strong
TTITLE9=All Through Throwing Good Love After Bad
EXTD=
EXTT0=With Ricky Skaggs
EXTT1=With Gene Watson
EXTT2=With Vern Gosdin
EXTT3=With Emmylou Harris
EXTT4=With Vince Gill
EXTT5=With Larry, Steve, Rudy Gatlin
EXTT6=With The O'kanes
EXTT7=With Dennis Wilson, Harry Stinson, John Wesley Ryles, Ricky Van
EXTT7=Shelton
EXTT8=With Paul Overstreet
EXTT9=With Rodney Crowell, Jeannie Smith
PLAYORDER=
